<?xml version="1.0" encoding="utf-8" ?>
<svg xmlns="http://www.w3.org/2000/svg" xmlns:xlink="http://www.w3.org/1999/xlink" width="1024" height="1024">
	<path transform="scale(2 2)" d="M134.51 380.642C128.124 374.116 121.794 367.532 116.145 360.347C66.5131 297.227 66.9252 204.314 118.119 141.983C152.613 99.9845 194.715 80.8462 247.203 75.7119C303.777 73.7875 357.592 96.8084 393.532 141.301C486.143 255.949 405.423 427.533 256.481 427.524L256.481 364.166L270.975 364.176C292.691 364.19 310.115 358.22 314.552 334.16L256.481 334.16L256.481 315.658L297.092 315.668C304.056 315.669 312.9 316.291 319.668 315.146C334.105 312.704 342.936 295.317 337.517 281.974C335.381 276.712 331.646 271.962 328.456 267.291L282.027 199.757C271.994 185.036 258.367 168.847 255.051 151.517C250.132 125.813 257.649 113.633 270.616 94.3961C263.958 94.9383 257.186 94.1082 250.496 94.4273C206.85 96.5089 168.158 114.828 138.858 147.25C82.2334 209.907 84.8522 310.116 148.096 367.329C143.422 371.627 138.922 376.078 134.51 380.642Z"/>
	<path transform="scale(2 2)" d="M153.632 189.62C156.974 184.854 160.277 180.065 163.409 175.158C184.25 190.358 193.867 190.631 215.431 175.158C219.292 179.886 222.613 184.986 226.63 189.62C224.085 191.731 221.35 193.601 218.654 195.509C200.452 207.427 179.465 209.064 161.123 195.869C158.493 193.977 156.14 191.673 153.632 189.62Z"/>
	<path transform="scale(2 2)" d="M187.739 334.16C187.248 333.885 187.809 323.749 187.959 322.275C190.765 294.678 212.179 272.175 240.25 270.357C240.601 271.032 240.25 286.618 240.25 288.651C216.241 292.697 206.034 310.888 206.67 334.16L187.739 334.16Z"/>
</svg>
