 <svg width="40" height="40" viewBox="0 0 40 40" fill="none" xmlns="http://www.w3.org/2000/svg">
  <path d="M20 2C10.059 2 2 10.059 2 20s8.059 18 18 18 18-8.059 18-18S29.941 2 20 2z" fill="currentColor"/>
  <path d="M13 10c-1.657 0-3 1.79-3 4s1.343 4 3 4 3-1.79 3-4-1.343-4-3-4zM27 10c-1.657 0-3 1.79-3 4s1.343 4 3 4 3-1.79 3-4-1.343-4-3-4zM20 22c-2.761 0-5 2.239-5 5s2.239 5 5 5 5-2.239 5-5-2.239-5-5-5zM11 22c-1.657 0-3 1.343-3 3s1.343 3 3 3 3-1.343 3-3-1.343-3-3-3zM29 22c-1.657 0-3 1.343-3 3s1.343 3 3 3 3-1.343 3-3-1.343-3-3-3z" fill="white"/>
</svg>